HIERARCHY
ROOT Hips
{
  OFFSET -187.679 86.5976 -156.378
  CHANNELS 6 Xposition Yposition Zposition Zrotation Xrotation Yrotation
  JOINT LeftUpLeg
  {
    OFFSET 8.64259 1.95398 -2.38835
    CHANNELS 3 Zrotation Xrotation Yrotation
    JOINT LeftLeg
    {
      OFFSET 43.7702 0 0
      CHANNELS 3 Zrotation Xrotation Yrotation
      JOINT LeftFoot
      {
        OFFSET 40.6238 0 0
        CHANNELS 3 Zrotation Xrotation Yrotation
        JOINT LeftToeBase
        {
          OFFSET 12.7242 0 0
          CHANNELS 3 Zrotation Xrotation Yrotation
          End Site
          {
            OFFSET 0 0 0
          }
        }
      }
    }
  }
  JOINT RightUpLeg
  {
    OFFSET -8.2249 1.95398 -2.59336
    CHANNELS 3 Zrotation Xrotation Yrotation
    JOINT RightLeg
    {
      OFFSET 43.5653 0 0
      CHANNELS 3 Zrotation Xrotation Yrotation
      JOINT RightFoot
      {
        OFFSET 40.6238 0 0
        CHANNELS 3 Zrotation Xrotation Yrotation
        JOINT RightToeBase
        {
          OFFSET 12.7242 0 0
          CHANNELS 3 Zrotation Xrotation Yrotation
          End Site
          {
            OFFSET 0 0 0
          }
        }
      }
    }
  }
  JOINT Spine
  {
    OFFSET 0.165834 0.87714 6.61349
    CHANNELS 3 Zrotation Xrotation Yrotation
    JOINT Spine1
    {
      OFFSET 7.38963 1.71661e-005 0
      CHANNELS 3 Zrotation Xrotation Yrotation
      JOINT Spine2
      {
        OFFSET 11.9445 1.14441e-005 0
        CHANNELS 3 Zrotation Xrotation Yrotation
        JOINT Spine3
        {
          OFFSET 14.7254 4.19617e-005 0
          CHANNELS 3 Zrotation Xrotation Yrotation
          JOINT Spine4
          {
            OFFSET 10.9679 0 0
            CHANNELS 3 Zrotation Xrotation Yrotation
            JOINT RightShoulder
            {
              OFFSET 2.46616 -1.6653 3.69651
              CHANNELS 3 Zrotation Xrotation Yrotation
              JOINT RightArm
              {
                OFFSET 13.0012 0 0
                CHANNELS 3 Zrotation Xrotation Yrotation
                JOINT RightForeArm
                {
                  OFFSET 28.7848 1.52588e-005 0
                  CHANNELS 3 Zrotation Xrotation Yrotation
                  JOINT RightHand
                  {
                    OFFSET 26.5688 1.52588e-005 0
                    CHANNELS 3 Zrotation Xrotation Yrotation
                    End Site
                    {
                      OFFSET 0 0 0
                    }
                  }
                }
              }
            }
            JOINT LeftShoulder
            {
              OFFSET 2.38034 -1.29275 -3.7523
              CHANNELS 3 Zrotation Xrotation Yrotation
              JOINT LeftArm
              {
                OFFSET 16.3182 6.10352e-005 0
                CHANNELS 3 Zrotation Xrotation Yrotation
                JOINT LeftForeArm
                {
                  OFFSET 27.0901 0 0
                  CHANNELS 3 Zrotation Xrotation Yrotation
                  JOINT LeftHand
                  {
                    OFFSET 24.5451 1.52588e-005 0
                    CHANNELS 3 Zrotation Xrotation Yrotation
                    End Site
                    {
                      OFFSET 0 0 0
                    }
                  }
                }
              }
            }
            JOINT Neck
            {
              OFFSET 5.0226 -0.0266342 0
              CHANNELS 3 Zrotation Xrotation Yrotation
              JOINT Head
              {
                OFFSET 6.69363 2.86102e-005 0
                CHANNELS 3 Zrotation Xrotation Yrotation
                End Site
                {
                  OFFSET 0 0 0
                }
              }
            }
          }
        }
      }
    }
  }
}
MOTION
Frames:	15
Frame Time:	0.0416667
-272.466 90.1156 -235.22 102.754 -45.3445 97.7767 -177.194 38.9639 87.9751 -43.3815 14.2399 1.88289 65.1961 3.54463 3.65734 25.0861 -0.0645226 -3.83918 171.547 -7.41621 89.681 -52.3925 -2.51409 -0.0749423 83.9055 -8.83066 -2.50612 35.9294 -0.472295 7.04523 1.17816 8.26928 -90.2293 10.343 2.24225 -0.650264 -1.32627 2.21146 -0.748365 -23.877 2.33396 0.0540488 -3.86432 2.33397 0.0540527 88.4321 -42.9362 -105.004 4.46865 10.2544 -1.58842 -0.461058 -2.0519 -105.002 -30.1197 5.05696 -24.0479 -87.9799 -41.8562 80.354 -23.6725 16.1424 6.9951 -19.0502 -7.65933 -105.656 -1.15139 -0.0496207 -0.705232 13.5491 -3.67251 -2.45929 0.70834 -2.87387 2.04416 
-265.031 92.2164 -227.19 105.148 -43.2482 99.5888 -178.445 30.6457 88.0438 -23.8979 18.975 2.19383 62.371 2.31393 1.0327 26.9083 -0.592827 -0.509465 171.324 -17.5992 88.9522 -44.386 -3.71651 -0.017417 70.4657 -3.93502 -3.64801 38.8149 -0.892535 12.8924 1.38698 8.25974 -90.2453 10.3646 2.65082 -0.71932 -1.30391 2.61659 -0.835368 -23.8606 2.74437 0.1112 -3.8479 2.74437 0.111198 88.6939 -42.0047 -104.853 8.57653 6.32893 -0.871898 -3.11614 0.510707 -103.539 -28.7803 3.05216 -17.0625 -88.2816 -40.8606 79.6333 -22.7486 14.6141 9.13234 -18.3402 -7.46466 -104.687 2.1983 0.194206 2.36175 9.02691 -5.61893 -5.31463 0.857441 -4.23755 3.34904 
-258.156 93.0954 -219.218 103.626 -42.8144 99.4385 -179.46 27.8827 88.9128 -16.4845 18.7327 2.66494 60.4719 1.65382 -1.0018 24.512 -2.92775 3.3836 174.646 -19.6062 92.259 -45.4663 -6.72002 -1.96097 60.4753 -0.488536 1.4859 26.5825 -1.27878 2.76165 1.5902 7.82875 -90.2664 11.231 3.04126 -0.824797 -0.436705 3.00202 -0.957961 -23.0006 3.1484 0.128265 -2.98794 3.14843 0.128268 88.6274 -41.7122 -105.055 12.388 -1.2642 0.784941 -4.95634 5.48902 -102.288 -20.196 0.497776 -7.57645 -87.8946 -38.4952 79.7393 -24.5598 16.2678 11.164 -20.8359 -7.36382 -104.179 5.53276 0.478843 3.97969 1.33705 -6.12848 -8.56256 3.57383 -4.57484 3.1673 
-251.478 92.1289 -212.084 103.136 -44.578 100.241 -177.878 29.0788 89.918 -24.471 20.1794 2.43202 60.6346 0.808069 -2.73174 25.9697 -2.47073 3.89852 175.527 -16.7568 92.4166 -54.7221 -9.02042 -3.3592 57.393 0.598484 -1.17468 20.4673 -2.23291 2.53906 1.86231 7.62136 -90.3347 11.6516 3.54757 -1.03634 -0.0151166 3.49853 -1.19164 -22.5889 3.69482 0.0791769 -2.57622 3.69483 0.0791765 89.4599 -41.2337 -103.794 17.178 -9.42082 2.59692 -9.44147 10.827 -102.955 -2.92255 -0.0734326 -2.98869 -88.0422 -38.1059 79.3954 -24.1178 17.0119 12.0508 -21.3174 -7.15826 -104.605 4.31298 0.378186 3.75097 0.38716 -6.66374 -10.3614 2.68344 -4.87544 4.62934 
-244.697 91.0866 -205.208 106.35 -45.8538 102.667 -175.84 28.9401 89.2522 -35.9493 28.2517 2.60616 52.9663 -2.86372 0.695025 27.346 -0.259107 -0.876921 172.979 -14.7575 89.4096 -63.8903 2.99042 -2.48574 61.2083 -1.15021 -1.41816 18.4932 -2.98541 3.50782 1.74446 7.81024 -90.3602 11.272 3.30401 -1.04458 -0.395289 3.25484 -1.18912 -22.9642 3.46502 -0.00214275 -2.95152 3.46501 -0.00214399 89.5477 -41.0991 -103.685 19.2165 -12.3235 0.680256 -8.37321 12.5547 -103.259 2.012 0.0654672 -0.902942 -88.6748 -39.764 78.7168 -21.8075 14.9125 13.8522 -21.4212 -6.12607 -105.586 4.35768 0.420864 4.42948 1.47762 -5.31541 -9.41255 1.94182 -3.60992 4.79536 
-239.166 89.9835 -199.522 108.954 -45.3523 102.487 -173.795 30.8443 86.2839 -53.0409 29.5474 1.96535 64.1894 3.42367 6.08156 9.4912 -8.47882 1.08901 169.399 -8.34118 85.0265 -74.7273 15.2973 -1.75296 67.3616 -3.72941 -0.214717 20.2053 -2.33342 2.6751 1.23225 8.0417 -90.0412 10.7983 2.43492 -0.305106 -0.870325 2.41912 -0.41205 -23.424 2.41398 0.441247 -3.41138 2.41398 0.441242 88.2326 -43.9099 -105.039 18.1062 -11.1159 0.220383 -10.171 12.4202 -103.567 1.17339 0.0673751 1.32411 -88.8739 -40.5536 78.5738 -20.7805 15.4476 13.6471 -20.5913 -7.31046 -104.962 0.719005 0.0739619 1.9394 2.1045 -3.60707 -9.9633 2.09609 -1.75456 5.33324 
-233.325 88.4722 -194.751 114.289 -43.0682 99.69 -172.691 25.7211 78.6888 -60.8705 26.0394 0.945734 67.1323 5.48967 8.04669 16.8577 -4.59245 -0.31697 167.074 -0.691217 78.4008 -86.1802 16.4139 -3.70641 73.1873 -5.57283 -1.21324 19.1317 -2.67423 3.01357 0.48868 8.76622 -89.2603 9.33358 1.30592 1.38012 -2.33742 1.3654 1.32132 -24.8682 0.830814 1.7087 -4.85555 0.830784 1.70869 87.9186 -46.1601 -104.87 18.602 -9.57605 0.307553 -10.2889 12.2265 -104.565 2.88124 0.136191 0.413063 -89.1545 -41.1566 78.2541 -17.9856 16.5516 7.89922 -22.1097 -9.05068 -102.523 0.0441223 0.0164254 0.689224 5.78545 -2.71119 -10.4319 -0.0379231 -0.575815 4.4078 
-227.781 87.4193 -190.236 118.222 -40.5485 98.7754 -173.441 19.8935 74.6274 -67.2475 23.3533 1.11286 72.8367 8.83155 8.53057 17.4076 -4.97772 1.01575 168.717 8.59692 75.4051 -93.3776 12.7129 -4.81652 75.1764 -6.26269 -3.02162 20.404 -2.76578 3.922 -0.334532 9.32839 -88.8079 8.21143 -0.143548 2.36092 -3.46168 -0.0395389 2.36494 -25.9813 -0.846309 2.20877 -5.96864 -0.846296 2.20878 88.2306 -46.3772 -104.314 19.557 -7.91003 -0.174072 -6.87615 11.3041 -104.805 -1.13477 -0.0504417 0.829444 -89.7391 -40.4668 77.1116 -16.2193 14.714 3.23606 -22.0503 -9.62125 -99.7306 -0.710866 -0.0301456 -0.120578 7.04169 -1.10261 -11.2088 0.626634 1.28161 4.08047 
-223.944 86.3381 -185.289 113.68 -48.3944 99.3194 -168.811 22.2965 79.2995 -72.1283 20.9073 -0.748197 79.4432 12.1742 7.39432 18.4535 -4.20415 0.261196 177.512 24.5458 82.955 -93.8826 17.3328 -5.3336 78.0026 -7.27088 -1.43213 20.4591 -2.89476 4.3076 -0.105849 8.83386 -89.109 9.20135 0.188007 1.75146 -2.47076 0.264872 1.7415 -24.9966 -0.347007 1.72702 -4.984 -0.346992 1.72702 87.8551 -46.6176 -104.839 18.7053 -6.46498 -0.360048 -5.40572 10.5485 -104.524 -4.00669 -0.231105 2.00266 -90.1966 -40.4995 76.3597 -13.9429 14.3495 -1.20084 -21.314 -11.0842 -96.2144 -4.58641 -0.145953 -1.12345 4.35386 1.31988 -9.46478 3.02271 3.11896 2.9797 
-219.471 86.0416 -179.951 112.417 -52.0599 101.697 -166.691 19.3934 83.599 -74.4117 17.4462 -1.16884 86.0866 14.5306 4.46259 18.7768 -3.04138 -2.13426 -179.598 34.8555 88.9144 -88.0058 17.1802 -4.84035 76.8919 -6.96452 -1.17161 20.2957 -2.05299 1.95657 -0.246724 8.69998 -89.5354 9.47257 -0.282759 0.940826 -2.19874 -0.24108 0.952354 -24.7316 -0.552437 0.812371 -4.71898 -0.552423 0.812372 88.4451 -46.0669 -104.062 18.8646 -6.99327 -0.148581 -4.94595 10.7106 -105.933 -2.50408 -0.149127 2.16585 -90.0143 -40.2891 76.6053 -10.7982 16.0301 -5.92291 -23.3673 -13.0763 -93.7727 -5.24133 -0.133737 -3.28599 3.30161 3.28395 -6.55268 1.42617 4.38616 1.75566 
-214.241 86.3223 -174.956 113.954 -52.2148 104.572 -167.384 12.2227 84.8107 -73.4822 12.476 -0.504807 91.4117 15.7361 1.29286 19.8026 -2.22461 -3.16683 179.548 39.1618 91.099 -76.9532 14.0282 -3.4032 70.9773 -4.65687 -2.53799 20.0213 -2.17612 2.15579 -0.693225 8.88295 -89.853 9.11095 -1.31685 0.386151 -2.55941 -1.29857 0.443732 -25.1 -1.37202 -0.0275446 -5.08735 -1.37201 -0.027545 89.1581 -45.2827 -103.138 18.2752 -5.88693 0.253241 -6.67483 10.4094 -106.936 -6.46922 -0.504719 4.53036 -90.2097 -38.7706 75.865 -8.64925 18.514 -10.3107 -19.3289 -15.6181 -90.5928 -11.3105 0.541181 -9.83652 1.37627 4.52858 -5.97361 1.43785 5.47391 2.90543 
-209.415 87.0139 -169.6 116.491 -52.6588 110.327 -167.183 5.09457 89.5507 -71.4337 11.0918 0.625969 92.675 15.6167 0.0636824 25.2502 -0.823428 -1.48964 177.204 37.8696 95.6065 -59.71 14.659 0.469846 62.4295 -1.92215 -1.41399 19.016 -2.6697 2.95415 -0.998727 9.25044 -90.5165 8.36754 -2.22078 -0.89044 -3.3017 -2.25781 -0.791807 -25.8461 -1.8505 -1.51684 -5.83347 -1.85048 -1.51685 90.5542 -43.4721 -101.341 17.2353 -7.28304 -1.68634 -8.2157 11.3625 -106.558 -7.96901 -0.806441 7.1658 -90.5015 -38.9839 75.4304 -4.5319 19.3902 -16.0632 -23.7491 -17.8112 -87.2204 -7.50946 0.210819 -8.72903 0.449538 5.52796 -2.69761 2.00767 5.9335 2.3879 
-203.822 87.695 -164.391 117.061 -53.1864 111.976 -167.239 -0.446852 90.1935 -69.4281 12.5448 1.35156 87.857 12.6308 -0.872015 32.4385 1.8693 -1.71849 175.683 33.2485 96.6631 -40.4777 10.375 3.65004 56.541 -0.302846 0.748251 19.6998 -2.65244 3.25864 -1.32231 9.52807 -90.9177 7.79338 -3.03972 -1.64973 -3.87487 -3.10938 -1.51427 -26.4211 -2.40349 -2.48713 -6.40846 -2.40351 -2.48714 90.9405 -42.7668 -100.88 14.9067 -6.4897 -3.33087 -5.53912 10.3784 -105.763 -11.0833 -1.2128 7.9932 -90.2866 -37.8152 75.4613 -1.60234 21.5293 -23.0673 -24.8248 -20.22 -84.9056 -11.7246 0.332814 -9.3137 0.00838159 5.78513 -0.514311 2.40997 5.89072 2.51087 
-197.575 87.6274 -159.333 115.238 -54.1694 108.674 -167.624 -3.64777 87.926 -68.0982 16.8635 1.09057 79.2694 9.22537 0.922009 40.4745 5.5913 -6.35974 174.6 31.2012 95.1606 -29.9299 9.58597 4.7464 56.4548 -0.208719 1.08804 19.2769 -2.86336 3.5938 -1.64156 9.49934 -90.9772 7.84471 -3.70334 -1.72935 -3.82188 -3.77584 -1.56453 -26.3782 -3.01248 -2.76284 -6.36551 -3.01246 -2.76283 90.5453 -43.1257 -101.446 12.1388 -6.60936 -3.80164 3.15213 9.18282 -103.501 -19.152 -1.88771 6.5027 -90.6547 -37.0398 74.5997 0.797108 18.2474 -28.8044 -20.0544 -21.0117 -78.2453 -7.79765 0.173204 -9.65338 -3.5169 5.28762 0.499479 5.16026 5.40584 3.33403 
-191.58 86.7455 -154.77 112.11 -55.4431 103.105 -167.672 -2.40389 84.8664 -71.3067 23.124 0.641996 68.2678 4.50228 2.50969 39.0279 4.78452 -5.1238 172.756 34.5959 92.4469 -36.0124 13.4574 5.90465 57.1037 -0.00255464 -0.0859759 18.0751 -2.43436 1.91119 -1.76303 9.27656 -90.8847 8.29454 -3.90792 -1.51531 -3.37121 -3.97082 -1.34164 -25.9348 -3.27184 -2.6205 -5.92214 -3.27184 -2.62051 89.9915 -44.5768 -101.978 10.0814 -3.04926 -2.9901 -1.68661 9.17349 -103.412 -15.2484 -1.70863 8.11601 -90.465 -35.0002 74.2986 1.63686 16.9322 -35.5058 -14.7689 -21.8515 -71.2989 -7.80996 0.179248 -9.845 -6.47985 4.13978 0.133694 6.22762 4.37176 3.53149 
